<?xml version="1.0" standalone="no"?>
<!DOCTYPE svg PUBLIC "-//W3C//DTD SVG 20010904//EN"
 "http://www.w3.org/TR/2001/REC-SVG-20010904/DTD/svg10.dtd">
<svg version="1.0" xmlns="http://www.w3.org/2000/svg"
 width="260.000000pt" height="260.000000pt" viewBox="0 0 260.000000 260.000000"
 preserveAspectRatio="xMidYMid meet">
<metadata>
Created by potrace 1.11, written by Peter Selinger 2001-2013
</metadata>
<g transform="translate(0.000000,260.000000) scale(0.100000,-0.100000)"
fill="#000000" stroke="none">
<path d="M1150 2554 c-352 -44 -669 -226 -879 -504 -105 -139 -196 -348 -232
-530 -20 -99 -17 -367 4 -467 84 -393 330 -715 682 -890 95 -48 206 -86 318
-110 113 -24 371 -24 484 0 246 52 449 158 625 326 195 185 318 407 375 674
24 113 24 371 0 484 -84 393 -330 715 -682 891 -90 45 -206 85 -310 107 -69
15 -318 27 -385 19z m753 -750 c77 -17 197 -68 236 -100 l23 -20 -48 -69 c-26
-39 -50 -74 -54 -78 -4 -5 -35 10 -70 32 -92 60 -157 81 -246 81 -118 0 -174
-36 -174 -111 0 -65 30 -80 230 -114 195 -34 251 -55 310 -114 52 -53 70 -101
70 -187 -1 -140 -100 -246 -273 -291 -46 -11 -89 -14 -167 -10 -131 7 -232 40
-336 109 l-74 49 57 70 c56 67 75 80 89 58 12 -20 116 -81 171 -100 76 -26
202 -26 259 0 67 31 92 88 62 144 -25 47 -49 56 -260 93 -164 29 -231 56 -282
115 -43 50 -60 112 -53 188 11 131 91 216 240 256 71 19 203 18 290 -1z m-781
-37 c108 -53 168 -159 154 -274 -11 -98 -67 -173 -158 -213 l-48 -21 111 -214
111 -215 -64 0 -63 0 -105 210 -105 210 -152 0 -153 0 0 -210 0 -210 -55 0
-55 0 0 486 0 485 263 -3 262 -3 57 -28z"/>
<path d="M650 1526 l0 -186 168 0 c200 0 254 12 301 65 80 92 59 215 -49 275
-43 24 -54 25 -232 28 l-188 4 0 -186z"/>
</g>
</svg>
